# xmcd
# Track frame offsets:
# 150
# 33127
# 62045
# 82800
# 132000
#
# Disc length: 2196 seconds
# Revision: 1
# Processed by: cddbd v1.5PL3 Copyright (c) Steve Scherf et al.
# Submitted via: VisiTrax 2.9.9.202 - For more info visit www.synapsa.com
#
DISCID=30089205
DTITLE=Jennifer Lopez - Play - CD Single
DYEAR=2001
DGENRE=Dance
TTITLE0=Play (Ruidasilva Mix)
TTITLE1=Play (Full Intention Mix)
TTITLE2=Play (Artful Dodger Mix)
TTITLE3=Love Don't Cost a Thing (HO2 Club Mix)
TTITLE4=Love Don't Cost a Thing (Full Intention Club Mix)
EXTD=
EXTT0=
EXTT1=
EXTT2=
EXTT3=
EXTT4=
PLAYORDER=
